<?xml version="1.0" encoding="iso-8859-1"?>
<!-- Generator: Adobe Illustrator 19.0.0, SVG Export Plug-In . SVG Version: 6.00 Build 0)  -->
<svg version="1.1" id="Capa_1" xmlns="http://www.w3.org/2000/svg" xmlns:xlink="http://www.w3.org/1999/xlink" x="0px" y="0px"
	 viewBox="0 0 512 512" style="enable-background:new 0 0 512 512;" xml:space="preserve">
<g>
	<g>
		<g>
			<path d="M256,211c-35.841,0-65,29.159-65,65s29.159,65,65,65s65-29.159,65-65S291.841,211,256,211z M256,311
				c-19.299,0-35-15.701-35-35s15.701-35,35-35s35,15.701,35,35S275.299,311,256,311z"/>
			<path d="M449.341,333.997l-64.613-14.765C401.876,164.718,330.734,47.69,264.437,2.597c-5.091-3.464-11.782-3.462-16.874,0
				c-44.74,30.44-140.117,137.255-120.298,316.636l-64.606,14.763C55.837,335.555,51,341.623,51,348.62V497
				c0,5.145,2.636,9.93,6.985,12.679c4.355,2.754,9.809,3.074,14.449,0.871L176.78,461H196v36c0,8.284,6.716,15,15,15h90
				c8.284,0,15-6.716,15-15v-36h19.22l104.346,49.55c4.636,2.201,10.091,1.885,14.449-0.871c4.349-2.75,6.985-7.535,6.985-12.679
				V348.62C461,341.623,456.162,335.555,449.341,333.997z M255.926,34c14.585,12.341,45.306,42.086,68.99,90.356
				c-44.954-9.752-92.872-9.752-137.826-0.001C205.653,86.508,231.659,54.468,255.926,34z M81,473.271V360.579l50.494-11.538
				c5.3,30.51,13.461,60.727,23.243,89.216L81,473.271z M286,482h-60v-21h60V482z M328.019,431c-17.801,0-126.506,0-144.038,0
				c-30.615-87.98-42.103-183.189-11.334-271.958c53.376-16.032,113.316-16.032,166.692-0.004
				C369.998,247.518,358.827,342.472,328.019,431z M431,473.271l-73.737-35.015c9.991-29.024,18.088-59.54,23.243-89.216
				L431,360.579V473.271z"/>
		</g>
	</g>
</g>
<g>
</g>
<g>
</g>
<g>
</g>
<g>
</g>
<g>
</g>
<g>
</g>
<g>
</g>
<g>
</g>
<g>
</g>
<g>
</g>
<g>
</g>
<g>
</g>
<g>
</g>
<g>
</g>
<g>
</g>
</svg>
